<svg width="32" height="32" viewBox="0 0 32 32" fill="none" xmlns="http://www.w3.org/2000/svg">
<g clip-path="url(#clip0_37_72841)">
<path d="M0.572012 32H26.8572C27.1729 32 27.4288 31.7441 27.4288 31.4287V30.8572H0.000488281V31.4287C0.000488281 31.7441 0.256343 32 0.572012 32Z" fill="#727489"/>
<path d="M5.14325 12.5718H8.57239V14.8574H5.14325V12.5718Z" fill="#727489"/>
<path d="M5.14325 9.14319H8.5719V11.429H5.14325V9.14319Z" fill="#727489"/>
<path d="M7.42912 2.85766C7.42912 3.17333 7.17326 3.42918 6.8576 3.42918C6.54193 3.42918 6.28607 3.17333 6.28607 2.85766C6.28607 2.54199 6.54193 2.28613 6.8576 2.28613C7.17326 2.28613 7.42912 2.54199 7.42912 2.85766Z" fill="#727489"/>
<path d="M16.5718 2.85766C16.5718 3.17333 16.3159 3.42918 16.0002 3.42918C15.6846 3.42918 15.429 3.17333 15.429 2.85766C15.429 2.54199 15.6846 2.28613 16.0002 2.28613C16.3159 2.28613 16.5718 2.54199 16.5718 2.85766Z" fill="#727489"/>
<path d="M12.0003 2.85766C12.0003 3.17333 11.7444 3.42918 11.429 3.42918C11.1133 3.42918 10.8575 3.17333 10.8575 2.85766C10.8575 2.54199 11.1133 2.28613 11.429 2.28613C11.7444 2.28613 12.0003 2.54199 12.0003 2.85766Z" fill="#727489"/>
<path d="M21.143 2.85766C21.143 3.17333 20.8871 3.42918 20.5717 3.42918C20.256 3.42918 20.0002 3.17333 20.0002 2.85766C20.0002 2.54199 20.256 2.28613 20.5717 2.28613C20.8871 2.28613 21.143 2.54199 21.143 2.85766Z" fill="#727489"/>
<path d="M3.42914 27.4389L5.36441 27.4287C5.3815 27.4297 5.39834 27.4241 5.41128 27.4126L5.71475 26.2754L3.77923 26.2856L3.42914 27.4389Z" fill="#727489"/>
<path d="M22.8573 26.8572C22.8573 26.5415 22.0897 26.2856 21.143 26.2856C20.1962 26.2856 19.4289 26.5415 19.4289 26.8572C19.4289 27.1728 20.1962 27.4287 21.143 27.4287C22.0897 27.4287 22.8573 27.1728 22.8573 26.8572Z" fill="#727489"/>
<path d="M1.58958 24.0001L0.161133 29.7144H27.2681L25.8394 24.0001H1.58958ZM6.81972 26.5716L6.51235 27.7144C6.3666 28.2261 5.89664 28.5772 5.36442 28.5716H3.47236C3.09956 28.5748 2.74654 28.4034 2.51876 28.1082C2.30612 27.8345 2.23385 27.4771 2.32394 27.1424L2.63131 25.9996C2.7773 25.4879 3.24726 25.1373 3.77924 25.1429H5.6713C6.04409 25.1398 6.39711 25.3111 6.62489 25.6063C6.83754 25.88 6.90956 26.2371 6.81972 26.5716ZM12.534 26.5716L12.2266 27.7144C12.0809 28.2261 11.6107 28.5772 11.0787 28.5716H9.18662C8.81382 28.5748 8.4608 28.4034 8.23302 28.1082C8.02014 27.8345 7.94811 27.4771 8.0382 27.1424L8.34557 25.9996C8.49156 25.4879 8.96153 25.1373 9.4935 25.1429H11.3856C11.7584 25.1398 12.1114 25.3111 12.3392 25.6063C12.5516 25.88 12.6238 26.2371 12.534 26.5716ZM21.143 28.5716C19.5138 28.5716 18.2858 27.8343 18.2858 26.8573C18.2858 25.8802 19.5138 25.1429 21.143 25.1429C22.7721 25.1429 24.0001 25.8802 24.0001 26.8573C24.0001 27.8343 22.7721 28.5716 21.143 28.5716Z" fill="#727489"/>
<path d="M9.14319 27.4389L11.0787 27.4287C11.0958 27.4297 11.1126 27.4241 11.1256 27.4126L11.429 26.2754L9.49352 26.2856L9.14319 27.4389Z" fill="#727489"/>
<path d="M18.8574 16.0002H22.287V18.2859H18.8574V16.0002Z" fill="#727489"/>
<path d="M18.8574 12.5718H22.2865V14.8574H18.8574V12.5718Z" fill="#727489"/>
<path d="M1.14329 22.8573H26.2857C26.917 22.8573 27.4288 22.3456 27.4288 21.7145V5.71475C27.4288 5.08366 26.917 4.57195 26.2857 4.57195H25.1429C24.1961 4.57195 23.4288 3.80438 23.4288 2.85762V0.572012C23.4288 0.256343 23.173 0.000488281 22.8573 0.000488281H4.57195C4.25628 0.000488281 4.00042 0.256343 4.00042 0.572012V2.85762C4.00042 3.80438 3.23286 4.57195 2.2861 4.57195H1.14329C0.512199 4.57195 0.000488281 5.08366 0.000488281 5.71475V21.7145C0.000488281 22.3456 0.512199 22.8573 1.14329 22.8573ZM20.5717 1.14329C21.5184 1.14329 22.2858 1.91086 22.2858 2.85762C22.2858 3.80438 21.5184 4.57195 20.5717 4.57195C19.6249 4.57195 18.8574 3.80438 18.8574 2.85762C18.8574 1.91086 19.6249 1.14329 20.5717 1.14329ZM16.0002 1.14329C16.947 1.14329 17.7146 1.91086 17.7146 2.85762C17.7146 3.80438 16.947 4.57195 16.0002 4.57195C15.0535 4.57195 14.2859 3.80438 14.2859 2.85762C14.2859 1.91086 15.0535 1.14329 16.0002 1.14329ZM11.429 1.14329C12.3755 1.14329 13.1431 1.91086 13.1431 2.85762C13.1431 3.80438 12.3755 4.57195 11.429 4.57195C10.4823 4.57195 9.71469 3.80438 9.71469 2.85762C9.71469 1.91086 10.4823 1.14329 11.429 1.14329ZM6.85755 1.14329C7.80432 1.14329 8.57188 1.91086 8.57188 2.85762C8.57188 3.80438 7.80432 4.57195 6.85755 4.57195C5.91079 4.57195 5.14323 3.80438 5.14323 2.85762C5.14323 1.91086 5.91079 1.14329 6.85755 1.14329ZM1.14329 6.85755C1.14329 6.22646 1.655 5.71475 2.2861 5.71475H25.1429C25.7742 5.71475 26.2857 6.22646 26.2857 6.85755V20.5717C26.2857 21.2028 25.7742 21.7145 25.1429 21.7145H2.2861C1.655 21.7145 1.14329 21.2028 1.14329 20.5717V6.85755Z" fill="#727489"/>
<path d="M18.8574 9.14319H22.2858V11.429H18.8574V9.14319Z" fill="#727489"/>
<path d="M25.1429 6.85754H2.28613V20.5717H25.1429V6.85754ZM9.71472 18.2858C9.71472 18.9172 9.20301 19.4289 8.57192 19.4289H5.14326C4.51217 19.4289 4.00046 18.9172 4.00046 18.2858V9.14315C4.00046 8.51206 4.51217 8.00035 5.14326 8.00035H8.57192C9.20301 8.00035 9.71472 8.51206 9.71472 9.14315V18.2858ZM16.5718 18.2858C16.5718 18.9172 16.0601 19.4289 15.429 19.4289H12.0003C11.3692 19.4289 10.8575 18.9172 10.8575 18.2858V9.14315C10.8575 8.51206 11.3692 8.00035 12.0003 8.00035H15.429C16.0601 8.00035 16.5718 8.51206 16.5718 9.14315V18.2858ZM23.4289 18.2858C23.4289 18.9172 22.9171 19.4289 22.2858 19.4289H18.8574C18.2263 19.4289 17.7146 18.9172 17.7146 18.2858V9.14315C17.7146 8.51206 18.2263 8.00035 18.8574 8.00035H22.2858C22.9171 8.00035 23.4289 8.51206 23.4289 9.14315V18.2858Z" fill="#727489"/>
<path d="M12.0003 9.14319H15.429V11.429H12.0003V9.14319Z" fill="#727489"/>
<path d="M5.14325 16.0002H8.57288V18.2859H5.14325V16.0002Z" fill="#727489"/>
<path d="M12.0003 12.5718H15.4294V14.8574H12.0003V12.5718Z" fill="#727489"/>
<path d="M31.4287 11.429H30.8572V2.85762C30.8535 2.82027 30.8462 2.78316 30.835 2.74727C31.4636 2.48555 31.8201 1.81638 31.6865 1.14866C31.5532 0.480705 30.9668 0 30.2857 0C29.6048 0 29.0184 0.480705 28.8848 1.14866C28.7515 1.81638 29.108 2.48555 29.7366 2.74727C29.7254 2.78316 29.7178 2.82027 29.7144 2.85762V11.429H28.5716V20.5717H31.4287C31.7441 20.5717 32 20.3158 32 20.0002V12.0003C32 11.6846 31.7441 11.429 31.4287 11.429Z" fill="#727489"/>
<path d="M12.0003 16.0002H15.4299V18.2859H12.0003V16.0002Z" fill="#727489"/>
</g>
<defs>
<clipPath id="clip0_37_72841">
<rect width="32" height="32" fill="white"/>
</clipPath>
</defs>
</svg>
