<svg width="32" height="32" viewBox="0 0 32 32" fill="none" xmlns="http://www.w3.org/2000/svg">
<g clip-path="url(#clip0_37_72892)">
<path d="M25.1428 30.8572V17.1428H23.4285V28.1599C23.78 28.363 23.9976 28.7371 24 29.1428V30.8572H25.1428Z" fill="#727489"/>
<path d="M18.8572 30.8572V29.1428C18.8596 28.7371 19.0771 28.363 19.4285 28.1599V23.4285C19.4285 21.5349 17.8936 20 16 20C14.1064 20 12.5715 21.5349 12.5715 23.4285V28.1599C12.9229 28.363 13.1404 28.7371 13.1428 29.1428V30.8572H18.8572Z" fill="#727489"/>
<path d="M19.4285 17.1428H12.5715V20.4172C13.4351 19.426 14.6853 18.8569 16 18.8569C17.3147 18.8569 18.5649 19.426 19.4285 20.4172V17.1428Z" fill="#727489"/>
<path d="M29.7144 14.8572H26.2856V17.1428H32C32 15.8804 30.9766 14.8572 29.7144 14.8572Z" fill="#727489"/>
<path d="M9.14282 29.1428H12V32H9.14282V29.1428Z" fill="#727489"/>
<path d="M20.5715 17.1428H22.2856V28H20.5715V17.1428Z" fill="#727489"/>
<path d="M6.85718 13.1428V16H25.1428V13.1428C25.1428 12.8271 24.887 12.5715 24.5715 12.5715H7.42847C7.11304 12.5715 6.85718 12.8271 6.85718 13.1428ZM22.8572 13.7144H23.4285C23.7441 13.7144 24 13.9702 24 14.2856C24 14.6013 23.7441 14.8572 23.4285 14.8572H22.8572C22.5415 14.8572 22.2856 14.6013 22.2856 14.2856C22.2856 13.9702 22.5415 13.7144 22.8572 13.7144ZM20 13.7144H20.5715C20.887 13.7144 21.1428 13.9702 21.1428 14.2856C21.1428 14.6013 20.887 14.8572 20.5715 14.8572H20C19.6843 14.8572 19.4285 14.6013 19.4285 14.2856C19.4285 13.9702 19.6843 13.7144 20 13.7144ZM17.1428 13.7144H17.7144C18.0298 13.7144 18.2856 13.9702 18.2856 14.2856C18.2856 14.6013 18.0298 14.8572 17.7144 14.8572H17.1428C16.8271 14.8572 16.5715 14.6013 16.5715 14.2856C16.5715 13.9702 16.8271 13.7144 17.1428 13.7144ZM14.2856 13.7144H14.8572C15.1729 13.7144 15.4285 13.9702 15.4285 14.2856C15.4285 14.6013 15.1729 14.8572 14.8572 14.8572H14.2856C13.9702 14.8572 13.7144 14.6013 13.7144 14.2856C13.7144 13.9702 13.9702 13.7144 14.2856 13.7144ZM11.4285 13.7144H12C12.3157 13.7144 12.5715 13.9702 12.5715 14.2856C12.5715 14.6013 12.3157 14.8572 12 14.8572H11.4285C11.113 14.8572 10.8572 14.6013 10.8572 14.2856C10.8572 13.9702 11.113 13.7144 11.4285 13.7144ZM8.57153 13.7144H9.14282C9.4585 13.7144 9.71436 13.9702 9.71436 14.2856C9.71436 14.6013 9.4585 14.8572 9.14282 14.8572H8.57153C8.25586 14.8572 8 14.6013 8 14.2856C8 13.9702 8.25586 13.7144 8.57153 13.7144Z" fill="#727489"/>
<path d="M20 29.1428H22.8572V32H20V29.1428Z" fill="#727489"/>
<path d="M9.71436 9.71436H10.8572V11.4285H9.71436V9.71436Z" fill="#727489"/>
<path d="M6.85718 30.8572H8V29.1428C8.00244 28.7371 8.21997 28.363 8.57153 28.1599V17.1428H6.85718V30.8572Z" fill="#727489"/>
<path d="M21.1428 9.71436H22.2856V11.4285H21.1428V9.71436Z" fill="#727489"/>
<path d="M12 9.71436H20V11.4285H12V9.71436Z" fill="#727489"/>
<path d="M9.71436 17.1428H11.4285V28H9.71436V17.1428Z" fill="#727489"/>
<path d="M5.71436 18.2856H0V30.8572H5.71436V18.2856ZM4 29.7144H1.71436C1.39868 29.7144 1.14282 29.4585 1.14282 29.1428C1.14282 28.8271 1.39868 28.5715 1.71436 28.5715H4C4.31567 28.5715 4.57153 28.8271 4.57153 29.1428C4.57153 29.4585 4.31567 29.7144 4 29.7144ZM4.57153 26.2742C4.56958 26.9048 4.05908 27.4153 3.42847 27.4172H2.28564C1.65527 27.4153 1.14478 26.9048 1.14282 26.2742V20.5715C1.14478 19.9409 1.65527 19.4304 2.28564 19.4285H3.42847C4.05908 19.4304 4.56958 19.9409 4.57153 20.5715V26.2742Z" fill="#727489"/>
<path d="M29.1428 5.14282C29.1428 4.82715 28.887 4.57153 28.5715 4.57153H26.2856V6.28564H29.1428V5.14282Z" fill="#727489"/>
<path d="M23.4285 9.71436V11.4285H24.5715C25.5171 11.4314 26.283 12.1973 26.2856 13.1428V13.7144H29.1428V7.42847H26.2856C26.2856 8.69092 25.2625 9.71436 24 9.71436H23.4285Z" fill="#727489"/>
<path d="M8 8.57153H24C24.6304 8.56958 25.1409 8.05908 25.1428 7.42847V1.14282C25.1409 0.512451 24.6304 0.00195312 24 0H8C7.36963 0.00195312 6.85913 0.512451 6.85718 1.14282V7.42847C6.85913 8.05908 7.36963 8.56958 8 8.57153ZM24 4.57153C24 4.88696 23.7441 5.14282 23.4285 5.14282C23.113 5.14282 22.8572 4.88696 22.8572 4.57153V4C22.8572 3.68433 23.113 3.42847 23.4285 3.42847C23.7441 3.42847 24 3.68433 24 4V4.57153ZM22.8572 1.14282H23.4285C23.7441 1.14282 24 1.39868 24 1.71436C24 2.02979 23.7441 2.28564 23.4285 2.28564H22.8572C22.5415 2.28564 22.2856 2.02979 22.2856 1.71436C22.2856 1.39868 22.5415 1.14282 22.8572 1.14282ZM22.8572 6.28564H23.4285C23.7441 6.28564 24 6.5415 24 6.85718C24 7.17285 23.7441 7.42847 23.4285 7.42847H22.8572C22.5415 7.42847 22.2856 7.17285 22.2856 6.85718C22.2856 6.5415 22.5415 6.28564 22.8572 6.28564ZM20 1.14282H20.5715C20.887 1.14282 21.1428 1.39868 21.1428 1.71436C21.1428 2.02979 20.887 2.28564 20.5715 2.28564H20C19.6843 2.28564 19.4285 2.02979 19.4285 1.71436C19.4285 1.39868 19.6843 1.14282 20 1.14282ZM20 6.28564H20.5715C20.887 6.28564 21.1428 6.5415 21.1428 6.85718C21.1428 7.17285 20.887 7.42847 20.5715 7.42847H20C19.6843 7.42847 19.4285 7.17285 19.4285 6.85718C19.4285 6.5415 19.6843 6.28564 20 6.28564ZM17.1428 1.14282H17.7144C18.0298 1.14282 18.2856 1.39868 18.2856 1.71436C18.2856 2.02979 18.0298 2.28564 17.7144 2.28564H17.1428C16.8271 2.28564 16.5715 2.02979 16.5715 1.71436C16.5715 1.39868 16.8271 1.14282 17.1428 1.14282ZM17.1428 6.28564H17.7144C18.0298 6.28564 18.2856 6.5415 18.2856 6.85718C18.2856 7.17285 18.0298 7.42847 17.7144 7.42847H17.1428C16.8271 7.42847 16.5715 7.17285 16.5715 6.85718C16.5715 6.5415 16.8271 6.28564 17.1428 6.28564ZM14.2856 1.14282H14.8572C15.1729 1.14282 15.4285 1.39868 15.4285 1.71436C15.4285 2.02979 15.1729 2.28564 14.8572 2.28564H14.2856C13.9702 2.28564 13.7144 2.02979 13.7144 1.71436C13.7144 1.39868 13.9702 1.14282 14.2856 1.14282ZM14.2856 6.28564H14.8572C15.1729 6.28564 15.4285 6.5415 15.4285 6.85718C15.4285 7.17285 15.1729 7.42847 14.8572 7.42847H14.2856C13.9702 7.42847 13.7144 7.17285 13.7144 6.85718C13.7144 6.5415 13.9702 6.28564 14.2856 6.28564ZM11.4285 1.14282H12C12.3157 1.14282 12.5715 1.39868 12.5715 1.71436C12.5715 2.02979 12.3157 2.28564 12 2.28564H11.4285C11.113 2.28564 10.8572 2.02979 10.8572 1.71436C10.8572 1.39868 11.113 1.14282 11.4285 1.14282ZM11.4285 6.28564H12C12.3157 6.28564 12.5715 6.5415 12.5715 6.85718C12.5715 7.17285 12.3157 7.42847 12 7.42847H11.4285C11.113 7.42847 10.8572 7.17285 10.8572 6.85718C10.8572 6.5415 11.113 6.28564 11.4285 6.28564ZM8.57153 1.14282H9.14282C9.4585 1.14282 9.71436 1.39868 9.71436 1.71436C9.71436 2.02979 9.4585 2.28564 9.14282 2.28564H8.57153C8.25586 2.28564 8 2.02979 8 1.71436C8 1.39868 8.25586 1.14282 8.57153 1.14282ZM8 4C8 3.68433 8.25586 3.42847 8.57153 3.42847C8.88696 3.42847 9.14282 3.68433 9.14282 4V4.57153C9.14282 4.88696 8.88696 5.14282 8.57153 5.14282C8.25586 5.14282 8 4.88696 8 4.57153V4ZM8.57153 6.28564H9.14282C9.4585 6.28564 9.71436 6.5415 9.71436 6.85718C9.71436 7.17285 9.4585 7.42847 9.14282 7.42847H8.57153C8.25586 7.42847 8 7.17285 8 6.85718C8 6.5415 8.25586 6.28564 8.57153 6.28564Z" fill="#727489"/>
<path d="M26.2856 30.8572H32V18.2856H26.2856V30.8572ZM27.4285 20.5715C27.4304 19.9409 27.9409 19.4304 28.5715 19.4285H29.7144C30.3447 19.4304 30.8552 19.9409 30.8572 20.5715V26.2742C30.8552 26.9048 30.3447 27.4153 29.7144 27.4172H28.5715C27.9409 27.4153 27.4304 26.9048 27.4285 26.2742V20.5715ZM28 28.5715H30.2856C30.6013 28.5715 30.8572 28.8271 30.8572 29.1428C30.8572 29.4585 30.6013 29.7144 30.2856 29.7144H28C27.6843 29.7144 27.4285 29.4585 27.4285 29.1428C27.4285 28.8271 27.6843 28.5715 28 28.5715Z" fill="#727489"/>
<path d="M28.5715 20.5715H29.7144V26.2742H28.5715V20.5715Z" fill="#727489"/>
<path d="M5.71436 4.57153H3.42847C3.11304 4.57153 2.85718 4.82715 2.85718 5.14282V6.28564H5.71436V4.57153Z" fill="#727489"/>
<path d="M2.28564 20.5715H3.42847V26.2742H2.28564V20.5715Z" fill="#727489"/>
<path d="M5.71436 13.1428C5.71704 12.1973 6.48291 11.4314 7.42847 11.4285H8.57153V9.71436H8C6.73755 9.71436 5.71436 8.69092 5.71436 7.42847H2.85718V13.7144H5.71436V13.1428Z" fill="#727489"/>
<path d="M5.71436 14.8572H2.28564C1.02344 14.8572 0 15.8804 0 17.1428H5.71436V14.8572Z" fill="#727489"/>
</g>
<defs>
<clipPath id="clip0_37_72892">
<rect width="32" height="32" fill="white"/>
</clipPath>
</defs>
</svg>
