<svg width="32" height="32" viewBox="0 0 32 32" fill="none" xmlns="http://www.w3.org/2000/svg">
<g clip-path="url(#clip0_37_72879)">
<path d="M3.43484 24.0985C2.01119 24.6285 0.947551 25.8362 0.6017 27.3153C0.245912 28.8527 0.0466499 30.4225 0.00689697 31.9999H3.43484V24.0985Z" fill="#727489"/>
<path d="M23.3329 30.1419C23.763 29.7143 24.0042 29.1325 24.0025 28.5257V22.9747L21.5127 22.3846C21.3646 22.7447 21.188 23.0922 20.9847 23.4244H21.146C21.7771 23.4244 22.2886 23.936 22.2886 24.5671V26.8524C22.2886 27.4835 21.7771 27.995 21.146 27.995H18.8607C18.2542 27.9965 17.6726 27.755 17.2455 27.3249C17.1692 27.2449 17.0989 27.1597 17.0353 27.0695C16.8964 27.1754 16.7424 27.2593 16.5781 27.3185V31.9972H21.4819L23.3329 30.1419Z" fill="#727489"/>
<path d="M7.86707 30.9499C7.22208 30.3083 6.86033 29.4355 6.86281 28.5257V23.2455L4.57751 23.7871V31.9941H8.91158L7.86707 30.9499Z" fill="#727489"/>
<path d="M31.4063 27.3153C31.0604 25.836 29.9968 24.6285 28.5731 24.0985V31.9942H31.9777C31.9563 30.4185 31.7648 28.8497 31.4063 27.3153Z" fill="#727489"/>
<path d="M6.52389 19.516C6.32687 20.7118 6.13481 21.6162 5.96984 22.2828L10.3988 21.2333L11.2374 18.1082C10.9141 17.6911 10.6199 17.252 10.3571 16.7941C9.94613 16.0103 9.54561 15.0756 9.34287 14.5854C8.91628 14.5466 8.51601 14.3615 8.20992 14.0616C7.88593 13.7128 7.71723 13.2474 7.74257 12.7721C7.73884 12.4225 7.66455 12.0772 7.52368 11.7574C7.45461 11.5939 7.36268 11.4066 7.25535 11.1922C6.59545 9.95364 6.87198 8.96404 7.35249 8.4562C7.82655 7.96922 8.5421 7.80574 9.18063 8.03854H9.18635C11.9509 7.49343 14.2141 4.93856 15.0601 3.86448C15.2805 3.57255 15.6328 3.4113 15.9978 3.4354C16.3742 3.46994 16.7074 3.69255 16.8838 4.02672C17.5695 5.24938 19.4913 8.06836 22.6805 8.06836H22.7518C23.4027 7.79605 24.1536 7.94661 24.6492 8.44874C25.1332 8.95609 25.4142 9.94619 24.7469 11.2019C24.6453 11.4054 24.5533 11.5927 24.4835 11.7589C24.3412 12.0777 24.2686 12.4235 24.2711 12.7726C24.292 13.2514 24.1193 13.7185 23.7918 14.0683C23.4875 14.3622 23.0924 14.5436 22.6713 14.5826C22.4673 15.0728 22.0651 16.0107 21.6509 16.7914C21.388 17.2491 21.0938 17.6881 20.7706 18.1052L21.6091 21.2306L26.0428 22.2818C25.8776 21.607 25.6856 20.7008 25.4903 19.5155C25.208 17.8744 25.2806 16.1921 25.7027 14.5814C26.0781 13.2728 26.2729 11.9189 26.2821 10.5576C26.2158 1.83286 20.6563 0 16.004 0C11.339 0 5.79791 1.83286 5.73157 10.5626C5.74175 11.9234 5.93505 13.2767 6.30575 14.5859C6.72713 16.1951 6.80167 17.8757 6.52389 19.516Z" fill="#727489"/>
<path d="M17.0323 24.3465C17.4162 23.824 18.007 23.4925 18.6532 23.4376L19.5862 23.4319C20.0031 22.9124 20.3296 22.3263 20.5522 21.6984L19.8776 19.1885C19.2714 19.8646 18.6006 20.4795 17.8746 21.0249L17.6723 21.1734C16.6753 21.886 15.3356 21.886 14.3386 21.1734L14.1328 21.0226C13.4071 20.4768 12.7363 19.8614 12.1303 19.1853L11.4572 21.694C11.6808 22.3213 12.007 22.9074 12.423 23.4279L13.3107 23.4324H13.3559C14.0024 23.4891 14.593 23.8222 14.9756 24.3465C15.5811 23.8776 16.4268 23.8776 17.0323 24.3465Z" fill="#727489"/>
<path d="M8.00544 22.9747V28.5257C8.0037 29.1325 8.24495 29.7144 8.67503 30.1419L10.5312 31.9984H15.4325V27.3185C15.2686 27.2594 15.1143 27.1754 14.9756 27.0695C14.912 27.1597 14.8417 27.245 14.7654 27.325C14.3373 27.7558 13.7547 27.9973 13.1472 27.995H10.8619C10.2309 27.995 9.71929 27.4835 9.71929 26.8524V24.5671C9.71929 23.936 10.2309 23.4244 10.8619 23.4244H11.0237C10.8199 23.0923 10.6433 22.7444 10.4952 22.3839L8.00544 22.9747Z" fill="#727489"/>
<path d="M10.8619 26.8523H13.1472C13.742 26.8379 14.2263 26.3698 14.2606 25.776C14.2949 25.1819 13.8678 24.6612 13.2787 24.5784L12.1566 24.5722H12.1499L11.2813 24.567H10.8619V26.8523Z" fill="#727489"/>
<path d="M22.2773 13.4645C22.5272 13.4857 22.7762 13.4146 22.9777 13.265C23.0855 13.1328 23.1394 12.9646 23.1285 12.7942C23.124 12.2859 23.2274 11.782 23.4313 11.3161C23.5106 11.1278 23.6125 10.9164 23.7335 10.6769C24.1213 9.94615 24.0341 9.45545 23.8244 9.23656C23.6236 9.04973 23.3233 9.01842 23.0885 9.16004C23.003 9.19805 22.9093 9.2142 22.8159 9.207C22.8119 9.207 22.808 9.20973 22.8032 9.20973H22.6793C18.9263 9.20973 16.7158 6.04738 15.9131 4.62646C14.7344 6.10403 12.3897 8.56871 9.45719 9.14016L9.32004 9.18339C9.31483 9.18339 9.30986 9.18339 9.30464 9.18339C9.24128 9.20079 9.17519 9.20675 9.10985 9.20128C9.1019 9.20128 9.09444 9.20128 9.08649 9.20128C9.01519 9.19458 8.94587 9.1742 8.88251 9.14116C8.65244 9.02016 8.37069 9.05991 8.18311 9.24004C7.97465 9.45993 7.88894 9.95013 8.27007 10.6684C8.39728 10.9204 8.4984 11.131 8.5779 11.3169C8.7804 11.784 8.885 12.2876 8.88524 12.7964C8.87083 12.9656 8.92251 13.1336 9.02935 13.2655C9.23209 13.4176 9.48402 13.4896 9.73645 13.4678C9.97075 13.4678 10.1814 13.6106 10.2679 13.8283C10.2736 13.8427 10.8237 15.2236 11.3683 16.2629C11.6133 16.6873 11.8881 17.094 12.1905 17.4796C12.9351 18.4799 13.8203 19.3674 14.8186 20.1147L15.0065 20.2524C15.6047 20.6792 16.408 20.6792 17.006 20.2524L17.1906 20.1169C18.1889 19.3693 19.0739 18.4816 19.8188 17.4813C20.1212 17.095 20.3962 16.688 20.6419 16.2634C21.1918 15.2241 21.7423 13.8437 21.7476 13.83C21.832 13.6109 22.0422 13.4658 22.2773 13.4645Z" fill="#727489"/>
<path d="M27.4304 23.7876L25.1451 23.2455V28.5257C25.1476 29.4355 24.7859 30.3083 24.1409 30.9499L23.0964 31.9941H27.4304V23.7876Z" fill="#727489"/>
<path d="M16.5751 25.7098C16.5751 26.0253 16.3195 26.281 16.0039 26.281C15.6884 26.281 15.4325 26.0253 15.4325 25.7098C15.4325 25.3942 15.6884 25.1383 16.0039 25.1383C16.3195 25.1383 16.5751 25.3942 16.5751 25.7098Z" fill="#727489"/>
<path d="M19.8548 24.5727H19.8508L18.7039 24.5794C18.1345 24.648 17.7086 25.136 17.718 25.7097C17.718 26.3407 18.2296 26.8523 18.8607 26.8523H21.146V24.567H20.7244L19.8587 24.5715L19.8548 24.5727Z" fill="#727489"/>
</g>
<defs>
<clipPath id="clip0_37_72879">
<rect width="32" height="32" fill="white"/>
</clipPath>
</defs>
</svg>
