<svg width="48" height="44" viewBox="0 0 48 44" fill="none" xmlns="http://www.w3.org/2000/svg">
<circle cx="40" cy="12" r="8" fill="#FA5926"/>
<path d="M36.902 14.394L36.594 13.8055C36.7443 13.5012 36.8873 13.2023 37.023 12.909C37.1587 12.612 37.2888 12.3205 37.4135 12.0345C37.5418 11.7448 37.6665 11.4588 37.7875 11.1765C37.9085 10.8905 38.0295 10.6063 38.1505 10.324C38.2715 10.038 38.3943 9.752 38.519 9.466C38.6473 9.18 38.7775 8.89033 38.9095 8.597C39.0452 8.3 39.1863 7.99933 39.333 7.695H39.7455L40.5815 8.1845C40.4422 8.4485 40.312 8.70517 40.191 8.9545C40.07 9.20017 39.9545 9.444 39.8445 9.686C39.7345 9.928 39.6263 10.1682 39.52 10.4065C39.4137 10.6448 39.3037 10.885 39.19 11.127C39.08 11.3653 38.9645 11.6092 38.8435 11.8585C38.7225 12.1078 38.5923 12.3645 38.453 12.6285L37.991 13.4205H42.941V14.394H36.902ZM40.433 16V13.3435L40.554 10.7035H41.698V16H40.433Z" fill="white"/>
<g clip-path="url(#clip0_36_28122)">
<path d="M1.54297 15.4285H2.85718C3.17285 15.4285 3.42847 15.6843 3.42847 16C3.42847 16.3157 3.17285 16.5715 2.85718 16.5715H1.94678C1.02783 19.1382 0.5625 21.8452 0.571533 24.5715C0.571533 35.2847 7.49268 44 16 44C24.5073 44 31.4285 35.2847 31.4285 24.5715C31.4375 21.8452 30.9722 19.1382 30.0532 16.5715H28.5715C28.2559 16.5715 28 16.3157 28 16C28 15.6843 28.2559 15.4285 28.5715 15.4285H32V12H24V15.4285H26.2856C26.6013 15.4285 26.8572 15.6843 26.8572 16C26.8572 16.3157 26.6013 16.5715 26.2856 16.5715H25.5149C26.4146 18.8149 26.8704 21.2114 26.8572 23.6287C26.8572 31.7102 21.9868 38.2856 16 38.2856C10.0132 38.2856 5.14282 31.7102 5.14282 23.6287C5.12964 21.2114 5.58545 18.8149 6.48511 16.5715H5.14282C4.82715 16.5715 4.57153 16.3157 4.57153 16C4.57153 15.6843 4.82715 15.4285 5.14282 15.4285H8V12H0V15.4285H1.54297ZM28.8137 27.5229C28.7676 27.7981 28.5295 28 28.2502 28C28.2185 28.0002 28.1868 27.9976 28.1555 27.9919C27.8442 27.9399 27.6343 27.6455 27.6863 27.3342C27.748 26.9663 27.801 26.5947 27.8452 26.2195C27.8818 25.906 28.1655 25.6814 28.4792 25.718C28.7927 25.7546 29.0171 26.0386 28.9805 26.3521C28.9346 26.7466 28.8789 27.137 28.8137 27.5229ZM29.1428 23.543C29.1428 23.6995 29.1414 23.8555 29.1382 24.0107C29.1323 24.3223 28.8782 24.5715 28.5669 24.5715H28.5566C28.405 24.5688 28.2605 24.5059 28.1553 24.3967C28.05 24.2874 27.9924 24.1409 27.9954 23.9893C27.9985 23.8413 28 23.6926 28 23.543C28 23.3188 27.9966 23.0957 27.9897 22.8738C27.9854 22.7222 28.0413 22.575 28.1453 22.4648C28.2493 22.3545 28.3931 22.29 28.5447 22.2856C28.8555 22.2886 29.1116 22.5303 29.1326 22.8406C29.1394 23.0737 29.1428 23.3079 29.1428 23.543ZM28.1079 18.8662C28.2573 18.8394 28.4111 18.8728 28.5356 18.9592C28.6602 19.0457 28.7451 19.1782 28.772 19.3274C28.8411 19.7136 28.9006 20.1045 28.9509 20.4995C28.9907 20.8125 28.769 21.0986 28.4561 21.1382C28.4319 21.1411 28.4077 21.1428 28.3835 21.1428C28.0959 21.1426 27.8533 20.9287 27.8171 20.6433C27.769 20.2683 27.7119 19.897 27.6458 19.5298C27.6189 19.3804 27.6526 19.2266 27.7393 19.1023C27.8262 18.9778 27.9587 18.8928 28.1079 18.8662ZM26.887 30.5491C26.9954 30.2253 27.0967 29.8958 27.1902 29.5605C27.2791 29.2615 27.5913 29.0891 27.8918 29.1729C28.1921 29.2568 28.3699 29.5662 28.2908 29.8679C28.1926 30.2217 28.0845 30.5698 27.9702 30.9121C27.9055 31.106 27.7422 31.2505 27.5417 31.2915C27.3413 31.3323 27.1345 31.2632 26.9988 31.1099C26.8633 30.9568 26.8198 30.7432 26.8845 30.5491H26.887ZM25.4744 33.7715C25.6331 33.4856 25.7856 33.1934 25.9314 32.8943C26.0208 32.7104 26.2014 32.5884 26.405 32.574C26.6089 32.5593 26.8049 32.6548 26.9194 32.824C27.0339 32.9932 27.0493 33.2104 26.96 33.3943C26.8049 33.7119 26.6428 34.0229 26.4736 34.3269C26.3203 34.6028 25.9722 34.7021 25.6963 34.5488C25.4204 34.3955 25.3208 34.0474 25.4744 33.7715ZM23.5686 36.5107C23.759 36.2937 23.9424 36.0693 24.1189 35.8376C24.2432 35.6748 24.4451 35.5908 24.6482 35.6177C24.8511 35.6445 25.0244 35.7781 25.1021 35.9678C25.1797 36.1572 25.1499 36.3738 25.0239 36.5354C24.8335 36.7847 24.636 37.0264 24.4314 37.2605C24.2244 37.4988 23.8635 37.5242 23.6252 37.3171C23.387 37.1101 23.3616 36.749 23.5686 36.5107ZM21.3765 38.543C21.5618 38.4075 21.7439 38.2668 21.9229 38.1194C22.1667 37.9207 22.5254 37.9565 22.7253 38.1995C22.925 38.4426 22.8909 38.8015 22.6487 39.0022C22.4529 39.1631 22.2539 39.3174 22.052 39.4651C21.8872 39.5857 21.6707 39.6094 21.4839 39.5271C21.2969 39.4446 21.1682 39.2688 21.146 39.0659C21.124 38.8628 21.2119 38.6636 21.3765 38.543ZM18.6624 40C18.8452 39.9343 19.0247 39.8635 19.2029 39.7869C19.3904 39.7063 19.6069 39.7317 19.7705 39.854C19.9341 39.9761 20.0203 40.1763 19.9961 40.3792C19.9722 40.5818 19.8418 40.7566 19.6543 40.8372C19.4553 40.9224 19.2546 41.0017 19.052 41.075C18.9895 41.0972 18.9236 41.1086 18.8572 41.1086C18.5798 41.1086 18.3425 40.9092 18.2944 40.636C18.2463 40.3628 18.4016 40.0947 18.6624 40ZM14.9075 40.4893C15.0725 40.5022 16.356 40.5022 16.5212 40.4893C16.8357 40.4614 17.113 40.6938 17.1409 41.0083C17.1687 41.3228 16.9363 41.6003 16.6218 41.6279C16.512 41.6372 16.1125 41.6423 15.7144 41.6423C15.3159 41.6423 14.9143 41.6372 14.8069 41.6279C14.4924 41.6003 14.26 41.3228 14.2876 41.0083C14.3154 40.6938 14.593 40.4614 14.9075 40.4893ZM11.4749 40.0891C11.5347 39.95 11.6475 39.8401 11.7883 39.7839C11.929 39.7278 12.0864 39.7297 12.2258 39.7898C12.4041 39.8662 12.5835 39.9373 12.7664 40.0029C13.0237 40.0996 13.1758 40.366 13.1279 40.637C13.0803 40.9077 12.8464 41.1062 12.5715 41.1091C12.5051 41.1091 12.4392 41.0977 12.3765 41.0754C12.1743 41.002 11.9736 40.9226 11.7742 40.8376C11.635 40.7778 11.5251 40.665 11.469 40.5244C11.4128 40.3835 11.415 40.2261 11.4749 40.0869V40.0891ZM8.70166 38.1995C8.9021 37.9558 9.26196 37.9204 9.50562 38.1206C9.68457 38.2681 9.86694 38.4062 10.052 38.5439C10.3066 38.7305 10.3621 39.0881 10.1755 39.3428C9.98901 39.5977 9.63135 39.6528 9.37646 39.4663C9.17505 39.3181 8.97607 39.1638 8.78003 39.0034C8.66235 38.907 8.58789 38.7678 8.57324 38.6165C8.55859 38.4653 8.60474 38.3142 8.70166 38.197V38.1995ZM6.50854 35.7327C6.7583 35.541 7.11597 35.5874 7.30859 35.8367C7.48682 36.0681 7.67017 36.2925 7.85889 36.5098C7.99268 36.6638 8.03418 36.8777 7.96777 37.0708C7.90137 37.2639 7.73682 37.4067 7.53638 37.4456C7.33594 37.4846 7.12988 37.4136 6.99609 37.2595C6.79321 37.0259 6.5957 36.7842 6.40332 36.5342C6.31104 36.4141 6.27002 36.262 6.28979 36.1116C6.30957 35.9612 6.38818 35.825 6.50854 35.7327ZM2.28564 23.543C2.28564 23.3074 2.28906 23.0732 2.2959 22.8406C2.30493 22.5315 2.55811 22.2856 2.86743 22.2856H2.88452C3.03613 22.29 3.17969 22.3545 3.28394 22.4648C3.38794 22.575 3.44385 22.7222 3.43945 22.8738C3.43213 23.0957 3.42847 23.3188 3.42847 23.543C3.42847 23.6926 3.43018 23.8413 3.43311 23.9893C3.43604 24.1409 3.37842 24.2874 3.27319 24.3967C3.16797 24.5059 3.02368 24.5688 2.87207 24.5715H2.86182C2.55029 24.5715 2.29614 24.3223 2.29028 24.0107C2.28735 23.8555 2.28564 23.6995 2.28564 23.543ZM2.61475 27.5229C2.55054 27.137 2.49487 26.7466 2.448 26.3521C2.41138 26.0386 2.63599 25.7546 2.94946 25.718C3.26294 25.6814 3.54688 25.906 3.5835 26.2195C3.62769 26.595 3.68066 26.9666 3.74219 27.3342C3.79419 27.6455 3.58423 27.9399 3.27319 27.9919C3.2417 27.9976 3.20996 28.0002 3.17822 28C2.89917 28 2.66089 27.7981 2.61475 27.5229ZM4.73315 32.6287C4.86938 32.5623 5.02661 32.5527 5.16992 32.6023C5.31323 32.6519 5.43091 32.7561 5.49707 32.8926C5.64307 33.1912 5.79541 33.4836 5.95435 33.7698C6.05347 33.9482 6.05005 34.166 5.94507 34.3411C5.84009 34.5161 5.6499 34.6221 5.44556 34.6189C5.24146 34.6155 5.05469 34.5037 4.95532 34.3252C4.78638 34.0203 4.62427 33.7095 4.46924 33.3926C4.40283 33.2563 4.39331 33.0991 4.44287 32.9558C4.49243 32.8125 4.59668 32.6948 4.73315 32.6287ZM4.23828 29.5601C4.33203 29.8948 4.43311 30.2244 4.54175 30.5486C4.60645 30.7424 4.56299 30.9563 4.42749 31.1094C4.29175 31.2625 4.08496 31.3318 3.88452 31.2908C3.68408 31.25 3.52075 31.1055 3.45605 30.9114C3.3418 30.5686 3.23364 30.2212 3.1355 29.8674C3.0564 29.5657 3.23413 29.2563 3.53442 29.1724C3.83496 29.0884 4.14722 29.261 4.23608 29.5601H4.23828ZM3.78125 19.5291C3.71533 19.896 3.6582 20.2673 3.60962 20.6428C3.57373 20.9277 3.33228 21.1416 3.04517 21.1428C3.021 21.1428 2.99658 21.1411 2.97266 21.1382C2.65942 21.0986 2.43799 20.8125 2.47778 20.4995C2.52808 20.104 2.58765 19.7134 2.65649 19.3274C2.7124 19.0168 3.00952 18.8101 3.32031 18.866C3.6311 18.9219 3.83765 19.219 3.78174 19.5298L3.78125 19.5291Z" fill="#727489"/>
</g>
<defs>
<clipPath id="clip0_36_28122">
<rect width="32" height="32" fill="white" transform="translate(0 12)"/>
</clipPath>
</defs>
</svg>
