<svg width="32" height="32" viewBox="0 0 32 32" fill="none" xmlns="http://www.w3.org/2000/svg">
<g clip-path="url(#clip0_37_72925)">
<path d="M21.5254 21.2054C20.8814 22.5302 19.6471 23.4714 18.1991 23.7414C18.7628 24.2416 19.2329 24.8386 19.5867 25.504L22.7588 22.16C22.5011 21.6817 22.0529 21.3349 21.5254 21.2054Z" fill="#727489"/>
<path d="M27.4304 31.9944V23.7911L25.1451 23.2639V28.5257C25.1476 29.4356 24.7859 30.3084 24.1409 30.9499L23.0964 31.9944H27.4304Z" fill="#727489"/>
<path d="M13.5736 25.7967C13.4484 26.0021 13.3415 26.2012 13.2548 26.3758C13.1326 26.6253 12.8963 26.7992 12.6217 26.8422C12.579 26.8489 12.5358 26.8524 12.4926 26.8524C12.2605 26.8519 12.0384 26.7572 11.8774 26.5902L11.0421 25.7097H10.8619V27.995H13.1475C13.6906 27.99 14.1552 27.6032 14.2586 27.07C14.3619 26.5366 14.0755 26.0041 13.5736 25.7967Z" fill="#727489"/>
<path d="M9.07826 6.26627C9.12796 6.1413 9.18237 6.01558 9.24299 5.88986L9.25442 5.86874C9.31156 5.75147 9.37492 5.63544 9.44275 5.52016C9.46461 5.48364 9.48797 5.44711 9.51083 5.41034C9.56573 5.32313 9.62288 5.23717 9.68226 5.1522C9.71009 5.11418 9.73866 5.07617 9.76798 5.03791C9.83829 4.94598 9.91357 4.85678 9.99258 4.76933C10.0154 4.74373 10.0366 4.7174 10.0599 4.6923C10.1655 4.58124 10.2771 4.4759 10.3941 4.37701C10.4227 4.35291 10.4547 4.33055 10.485 4.3067C10.5787 4.23192 10.6763 4.15986 10.7797 4.09179C10.8249 4.06222 10.8719 4.03464 10.9186 4.00557C11.0192 3.94445 11.1248 3.88855 11.2339 3.83414C11.2821 3.81078 11.3283 3.78619 11.378 3.76457C11.5422 3.69078 11.7109 3.62717 11.8831 3.57425C12.306 3.44381 12.7634 3.48481 13.1564 3.68854C17.045 5.87272 20.9403 7.51625 23.1336 4.80212C23.3222 4.57031 23.4892 4.32161 23.6323 4.05924C23.11 3.66072 22.6546 3.18145 22.2834 2.63956C21.3661 1.39132 20.0039 0.543592 18.4791 0.27203C17.6569 0.0891664 16.8174 -0.00201688 15.9754 -2.9231e-05C12.7338 -2.9231e-05 10.5861 0.818632 9.59083 2.43335C8.95801 3.61649 8.77142 4.98772 9.0646 6.29708C9.06857 6.28466 9.07379 6.27671 9.07826 6.26627Z" fill="#727489"/>
<path d="M8.57664 11.3311C8.77913 11.8002 8.88373 12.3058 8.88423 12.8166C8.86957 12.9883 8.92199 13.1587 9.03032 13.2927C9.23256 13.4442 9.4835 13.5163 9.73544 13.4949C10.051 13.4949 10.3066 13.7506 10.3066 14.0661C10.3126 14.9059 10.4828 15.7362 10.8073 16.5109C11.0649 17.0011 11.982 17.6985 13.1982 18.3298C13.4036 18.4317 13.585 18.5763 13.7296 18.7545C14.2807 19.4683 15.1056 19.9185 16.004 19.9965C16.9061 19.917 17.7337 19.4626 18.2853 18.744C18.4304 18.5681 18.6115 18.4253 18.8167 18.3254C20.025 17.6968 20.942 17.0004 21.2007 16.5084C21.5316 15.7367 21.7035 14.9059 21.7058 14.0661C21.7058 13.7506 21.9617 13.4949 22.2772 13.4949C22.5264 13.5158 22.7746 13.4447 22.9754 13.2954C23.085 13.1612 23.1396 12.9905 23.1284 12.8179C23.1235 12.307 23.2258 11.8009 23.4288 11.3323C23.5083 11.1425 23.6107 10.9323 23.7312 10.6896L23.7369 10.6787C24.1213 9.95092 24.0316 9.4555 23.8196 9.23438C23.6194 9.04953 23.321 9.01872 23.0872 9.1591C22.8586 9.26767 22.5861 9.21301 22.4169 9.02468C22.2479 8.83635 22.2228 8.55932 22.3555 8.34367C22.5806 7.77495 22.7473 7.18487 22.8531 6.58236C22.8462 6.58684 22.8392 6.58982 22.8325 6.59379C22.6512 6.70957 22.4621 6.81218 22.2663 6.90113L22.2052 6.92796C22.0101 7.01393 21.8096 7.08648 21.6047 7.14512L21.5734 7.15307C21.143 7.27009 20.7 7.33419 20.2541 7.34438H20.2317C20.0113 7.35009 19.7884 7.34438 19.5651 7.32723L19.5176 7.324C19.2948 7.30636 19.0714 7.27953 18.8475 7.24326L18.8155 7.23829C18.1149 7.11704 17.4264 6.93318 16.7588 6.68845L16.7101 6.67081C16.4962 6.59479 16.2847 6.51329 16.076 6.42683L16.0224 6.40472C15.8117 6.31776 15.6045 6.22856 15.4007 6.13663L15.3828 6.12819C15.1724 6.03278 14.9662 5.93588 14.7642 5.83724C14.5711 5.74308 14.3838 5.64817 14.2004 5.55152L14.1346 5.51798C13.9632 5.42878 13.7969 5.34058 13.6359 5.25337L13.5472 5.20542C13.3907 5.12095 13.2394 5.03747 13.0943 4.95697L13.0218 4.91622L12.6051 4.68317C12.4806 4.62776 12.3395 4.6213 12.2103 4.66503C9.765 5.40766 9.73643 8.50939 9.73643 8.64131C9.73643 8.95685 9.48077 9.21276 9.16523 9.21276C9.16001 9.21276 9.15504 9.21276 9.14983 9.21276C9.12871 9.21003 9.10759 9.20605 9.08697 9.20133C9.02858 9.19363 8.97193 9.17674 8.91901 9.15164C8.90708 9.14866 8.89565 9.14518 8.88423 9.14121C8.78708 9.09897 8.68248 9.07661 8.57664 9.07512C8.42881 9.07189 8.28619 9.13077 8.18358 9.23786C7.97339 9.45948 7.88494 9.9549 8.2688 10.6794C8.39725 10.9323 8.49962 11.1438 8.57664 11.3311Z" fill="#727489"/>
<path d="M30.5901 24.767C30.5193 24.5959 30.3704 24.4696 30.1901 24.4282L28.5731 24.0527V31.9944H31.9777C31.968 29.52 31.4972 27.069 30.5901 24.767Z" fill="#727489"/>
<path d="M17.738 24.8659C17.3061 24.3472 16.6778 24.0319 16.004 23.9958C15.3302 24.0319 14.7018 24.3472 14.27 24.8659C14.5468 25.0212 14.7873 25.2337 14.9756 25.4891C15.5811 25.0202 16.4269 25.0202 17.0323 25.4891C17.2207 25.2337 17.4612 25.0212 17.738 24.8659Z" fill="#727489"/>
<path d="M21.8315 24.7996C22.1184 25.0143 22.2879 25.3515 22.2886 25.7097V27.995C22.2886 28.6261 21.7771 29.1377 21.146 29.1377H18.8607C18.2542 29.1392 17.6726 28.8977 17.2455 28.4676C17.1692 28.3878 17.0989 28.3024 17.0353 28.2122C16.8964 28.318 16.7424 28.402 16.5781 28.4611V31.9971H21.4819L23.3359 30.1432C23.7652 29.7148 24.0052 29.1324 24.0025 28.5257V22.9998L23.6208 22.9119L21.8315 24.7996Z" fill="#727489"/>
<path d="M19.3352 19.3435C19.2719 19.3726 19.2152 19.415 19.1698 19.468C18.4016 20.4516 17.2495 21.0596 16.004 21.1391C14.7629 21.0608 13.6143 20.4566 12.8468 19.4782C12.8016 19.423 12.745 19.3783 12.6806 19.3475C12.3949 19.1989 12.0344 18.9976 11.6654 18.7646L11.4431 20.5301C11.5693 20.9403 12.3579 22.8529 16.004 22.8529C19.6404 22.8529 20.4339 20.951 20.5649 20.5289L20.3427 18.7653C19.9758 18.9966 19.6187 19.1967 19.3352 19.3435Z" fill="#727489"/>
<path d="M9.24921 22.16L12.4212 25.504C12.7753 24.8386 13.2454 24.2416 13.8096 23.7414C12.3614 23.4716 11.1268 22.5307 10.4828 21.2059C9.95532 21.3356 9.50735 21.6822 9.24921 22.16Z" fill="#727489"/>
<path d="M3.43484 24.0527L1.81789 24.4259C1.63776 24.4674 1.48869 24.5936 1.41813 24.7648C0.509771 27.07 0.0314941 29.5222 0.00689697 32.0001H3.43484V24.0527Z" fill="#727489"/>
<path d="M8.00544 22.9998V28.5257C8.0037 29.1324 8.24495 29.7143 8.67503 30.1421L10.5312 31.9983H15.4328V28.4611C15.2685 28.4019 15.1143 28.318 14.9756 28.2121C14.912 28.3023 14.8417 28.3878 14.7654 28.4675C14.3373 28.8984 13.7547 29.1399 13.1475 29.1376H10.8619C10.2311 29.1376 9.71929 28.6261 9.71929 27.995V25.7097C9.72003 25.3514 9.88948 25.0143 10.1764 24.7996L8.38483 22.9143L8.00544 22.9998Z" fill="#727489"/>
<path d="M18.8607 27.995H21.146V25.7097H20.9659L20.134 26.5868C19.9725 26.7555 19.7492 26.8514 19.5154 26.8524C19.4721 26.8524 19.4289 26.8489 19.3862 26.8422C19.1114 26.7992 18.8751 26.6248 18.7531 26.3748C18.6664 26.1999 18.5596 26.0017 18.4348 25.7967C17.933 26.0041 17.6467 26.5363 17.7498 27.0695C17.8532 27.6029 18.3176 27.9898 18.8607 27.995Z" fill="#727489"/>
<path d="M16.5754 26.8523C16.5754 27.1679 16.3195 27.4238 16.004 27.4238C15.6885 27.4238 15.4328 27.1679 15.4328 26.8523C15.4328 26.5368 15.6885 26.2811 16.004 26.2811C16.3195 26.2811 16.5754 26.5368 16.5754 26.8523Z" fill="#727489"/>
<path d="M7.86707 30.9499C7.22208 30.3084 6.86033 29.4356 6.86281 28.5257V23.2639L4.57751 23.7911V31.9944H8.91157L7.86707 30.9499Z" fill="#727489"/>
</g>
<defs>
<clipPath id="clip0_37_72925">
<rect width="32" height="32" fill="white"/>
</clipPath>
</defs>
</svg>
