<svg width="48" height="44" viewBox="0 0 48 44" fill="none" xmlns="http://www.w3.org/2000/svg">
<circle cx="40" cy="12" r="8" fill="#FA5926"/>
<path d="M37.88 16L37.6875 15.351C38.0285 15.1237 38.3768 14.8615 38.7325 14.5645C39.0882 14.2675 39.4273 13.9485 39.75 13.6075C40.0727 13.2665 40.3623 12.9127 40.619 12.546C40.8757 12.1757 41.0773 11.8035 41.224 11.4295C41.3743 11.0555 41.4495 10.6888 41.4495 10.3295C41.4495 9.83817 41.3267 9.46233 41.081 9.202C40.839 8.94167 40.4998 8.8115 40.0635 8.8115C39.6895 8.8115 39.3412 8.8885 39.0185 9.0425C38.6995 9.19283 38.4428 9.37067 38.2485 9.576L37.715 8.8115C37.858 8.66117 38.0487 8.50533 38.287 8.344C38.529 8.179 38.8168 8.0415 39.1505 7.9315C39.4842 7.81783 39.8582 7.761 40.2725 7.761C40.8555 7.761 41.3322 7.87283 41.7025 8.0965C42.0765 8.32017 42.3515 8.62083 42.5275 8.9985C42.7035 9.37617 42.7915 9.79783 42.7915 10.2635C42.7915 10.8135 42.6577 11.3708 42.39 11.9355C42.126 12.5002 41.7593 13.0428 41.29 13.5635C40.8243 14.0805 40.2853 14.5517 39.673 14.977L43.105 14.9275V16H37.88Z" fill="white"/>
<g clip-path="url(#clip0_36_28141)">
<path d="M16.3999 17.853L16 17.0107L15.6001 17.8538C15.4854 18.1003 15.2551 18.2734 14.9863 18.3149L14.0435 18.4578L14.7429 19.1646C14.9307 19.3577 15.0156 19.6284 14.9714 19.8943L14.8098 20.8572L15.6147 20.4148C15.8545 20.2832 16.1448 20.2832 16.3845 20.4148L17.1902 20.8572L17.0325 19.8931C16.9885 19.6279 17.0732 19.3577 17.2612 19.165L17.9548 18.457L17.0115 18.3142C16.7434 18.2722 16.5142 18.0991 16.3999 17.853Z" fill="#727489"/>
<path d="M8 34.8572V33.1428L5.71362 34.8572H8Z" fill="#727489"/>
<path d="M16 36C13.7908 36 12 37.7908 12 40C12 42.2092 13.7908 44 16 44C18.2092 44 20 42.2092 20 40C19.9971 37.792 18.208 36.0029 16 36ZM17.0154 42.2856H14.9846C14.6689 42.2856 14.4131 42.0298 14.4131 41.7144C14.4131 41.3987 14.6689 41.1428 14.9846 41.1428H15.4285V38.8572C15.1975 38.8572 14.9893 38.7178 14.9006 38.5044C14.8123 38.2908 14.8611 38.0452 15.0247 37.8818L15.5959 37.3103C15.7595 37.147 16.0051 37.0981 16.2188 37.1865C16.4321 37.2749 16.5713 37.4832 16.5715 37.7144V41.1428H17.0154C17.3311 41.1428 17.5869 41.3987 17.5869 41.7144C17.5869 42.0298 17.3311 42.2856 17.0154 42.2856Z" fill="#727489"/>
<path d="M7.42847 13.1428H25.1428C25.4585 13.1428 25.7144 12.887 25.7144 12.5715C25.7144 12.2559 25.4585 12 25.1428 12H6.85718C6.5415 12 6.28564 12.2559 6.28564 12.5715C6.28564 12.887 6.5415 13.1428 6.85718 13.1428H7.42847Z" fill="#727489"/>
<path d="M16 25.7144C15.6177 25.7119 15.2361 25.6853 14.8572 25.6348V26.8572H17.1428V25.6348C16.7639 25.6853 16.3823 25.7119 16 25.7144Z" fill="#727489"/>
<path d="M9.71436 31.4285C9.39868 31.4285 9.14282 31.6843 9.14282 32V34.8572H22.8572V32C22.8572 31.6843 22.6013 31.4285 22.2856 31.4285H9.71436ZM12 33.7144H11.4285C11.113 33.7144 10.8572 33.4585 10.8572 33.1428C10.8572 32.8271 11.113 32.5715 11.4285 32.5715H12C12.3157 32.5715 12.5715 32.8271 12.5715 33.1428C12.5715 33.4585 12.3157 33.7144 12 33.7144ZM14.2856 32.5715H20.5715C20.887 32.5715 21.1428 32.8271 21.1428 33.1428C21.1428 33.4585 20.887 33.7144 20.5715 33.7144H14.2856C13.9702 33.7144 13.7144 33.4585 13.7144 33.1428C13.7144 32.8271 13.9702 32.5715 14.2856 32.5715Z" fill="#727489"/>
<path d="M24 34.8572H26.2864L24 33.1428V34.8572Z" fill="#727489"/>
<path d="M0 32.5715L1.74463 36.0571C1.90576 36.3792 1.90576 36.7585 1.74463 37.0806L0 40.5715H3.42847V35.4285C3.42847 35.4148 3.43555 35.4033 3.43652 35.3896C3.43994 35.3508 3.44775 35.3125 3.45947 35.2754C3.46802 35.2412 3.47949 35.208 3.49439 35.176C3.5105 35.1458 3.52979 35.1169 3.55151 35.0903C3.57471 35.0576 3.60156 35.0273 3.63135 35.0005C3.64111 34.9919 3.64624 34.98 3.65649 34.9719L6.85718 32.5715H0Z" fill="#727489"/>
<path d="M32 32.5715H25.1428L28.3428 34.9714C28.353 34.9795 28.3584 34.9915 28.3679 35C28.3979 35.0269 28.4248 35.0569 28.448 35.0896C28.4697 35.1162 28.4888 35.1448 28.5051 35.1748C28.52 35.207 28.5317 35.2405 28.54 35.2749C28.5518 35.312 28.5596 35.3503 28.5627 35.3892C28.5627 35.4028 28.5708 35.4143 28.5708 35.428V40.5708H31.9995L30.2549 37.0852C30.0935 36.7632 30.0935 36.3838 30.2549 36.0618L32 32.5715Z" fill="#727489"/>
<path d="M10.8572 40C10.8577 38.4451 11.5625 36.9744 12.7742 36H4.57153V44H12.7742C11.5625 43.0256 10.8577 41.5549 10.8572 40Z" fill="#727489"/>
<path d="M13.7144 28.5715V30.2856H18.2856V28.5715C18.2856 28.2559 18.0298 28 17.7144 28H14.2856C13.9702 28 13.7144 28.2559 13.7144 28.5715Z" fill="#727489"/>
<path d="M27.4285 41.1428V36H19.2258C20.4377 36.9739 21.1428 38.4451 21.1428 40C21.1428 41.5549 20.4377 43.0261 19.2258 44H27.4285V41.1428Z" fill="#727489"/>
<path d="M26.8572 20.5715V17.7144C26.8572 16.4519 25.8337 15.4285 24.5715 15.4285H24V14.2856H8V15.4285H7.42847C6.16626 15.4285 5.14282 16.4519 5.14282 17.7144V20.5715C5.14282 21.8337 6.16626 22.8572 7.42847 22.8572H10.76C10.8416 22.8564 10.9221 22.8381 10.9961 22.8035C13.9158 25.1606 18.0847 25.1606 21.0046 22.8035C21.0781 22.8381 21.1584 22.8567 21.24 22.8572H24.5715C25.8337 22.8572 26.8572 21.8337 26.8572 20.5715ZM7.42847 21.7144C6.79736 21.7144 6.28564 21.2026 6.28564 20.5715V17.7144C6.28564 17.083 6.79736 16.5715 7.42847 16.5715H8C7.99902 18.4543 8.66553 20.2764 9.8811 21.7144H7.42847ZM19.1885 18.8333L18.1841 19.8555L18.4233 21.3154C18.4785 21.6321 18.3464 21.9521 18.084 22.1377C17.8345 22.3157 17.5049 22.3347 17.2366 22.1863L16 21.5073L14.7634 22.1863C14.4951 22.335 14.1655 22.3159 13.916 22.1377C13.6526 21.9529 13.5193 21.6331 13.5732 21.3159L13.8132 19.8555L12.8081 18.8325C12.5859 18.6067 12.5103 18.2751 12.6121 17.9753C12.7065 17.6824 12.958 17.4675 13.2622 17.4199L14.6382 17.2109L15.2668 15.8862C15.3982 15.6001 15.6843 15.4167 15.999 15.4167C16.314 15.4167 16.6001 15.6001 16.7314 15.8862L17.3601 17.2109L18.7354 17.4199C19.0398 17.4673 19.2917 17.6821 19.3862 17.9753C19.4878 18.2756 19.4114 18.6077 19.1885 18.8333ZM25.7144 20.5715C25.7144 21.2026 25.2026 21.7144 24.5715 21.7144H22.1189C23.3345 20.2764 24.001 18.4543 24 16.5715H24.5715C25.2026 16.5715 25.7144 17.083 25.7144 17.7144V20.5715Z" fill="#727489"/>
</g>
<defs>
<clipPath id="clip0_36_28141">
<rect width="32" height="32" fill="white" transform="translate(0 12)"/>
</clipPath>
</defs>
</svg>
