<svg width="32" height="32" viewBox="0 0 32 32" fill="none" xmlns="http://www.w3.org/2000/svg">
<g clip-path="url(#clip0_37_72916)">
<path d="M21.2074 6.7459L25.3513 0.294617H17.0593L21.2074 6.7459Z" fill="#727489"/>
<path d="M10.7927 6.7459L14.9405 0.294617H6.6488L10.7927 6.7459Z" fill="#727489"/>
<path d="M21.6796 8.39502L16.8986 31.7669L32.0001 8.39502H21.6796Z" fill="#727489"/>
<path d="M5.51164 0.718559L0.174744 7.23783H9.73314L5.53265 0.699524C5.52721 0.705951 5.51806 0.711143 5.51164 0.718559ZM5.70792 4.13245L4.29663 5.85596C4.16833 6.02406 3.95845 6.1086 3.74956 6.07671C3.54068 6.04482 3.36566 5.90144 3.29322 5.70269C3.22104 5.50419 3.26257 5.28195 3.40224 5.123L4.81279 3.39924C5.01525 3.15204 5.37988 3.11595 5.62708 3.31865C5.87428 3.52111 5.91038 3.88574 5.70792 4.13294V4.13245Z" fill="#727489"/>
<path d="M11.8519 7.23786H20.1479L16 0.785828L11.8519 7.23786Z" fill="#727489"/>
<path d="M16 30.388L20.4986 8.39502H11.5014L16 30.388Z" fill="#727489"/>
<path d="M15.1015 31.7669L10.3205 8.39502H0L15.1015 31.7669ZM10.3465 21.2168C10.6152 21.044 10.9731 21.1216 11.1462 21.3903L11.52 21.969C11.6384 22.1425 11.6532 22.3668 11.5588 22.5546C11.4643 22.7425 11.2755 22.8644 11.0656 22.8728C10.8555 22.8814 10.6572 22.7756 10.548 22.5962L10.1747 22.0175C10.0911 21.8887 10.0622 21.7317 10.0946 21.5814C10.1267 21.4313 10.2174 21.3001 10.3465 21.2168ZM3.62204 10.802C3.89075 10.629 4.2487 10.7069 4.42174 10.9756L9.65209 19.076C9.77396 19.2495 9.79102 19.4757 9.69658 19.6656C9.6024 19.8554 9.41181 19.9785 9.19995 19.9864C8.9881 19.9943 8.78885 19.8856 8.68082 19.7031L3.45023 11.6027C3.36667 11.4737 3.33775 11.317 3.37014 11.1667C3.40227 11.0164 3.493 10.8854 3.62204 10.802Z" fill="#727489"/>
<path d="M26.4674 0.699524L22.2669 7.23783H31.8253L26.4882 0.718559C26.482 0.711143 26.4726 0.705951 26.4674 0.699524Z" fill="#727489"/>
</g>
<defs>
<clipPath id="clip0_37_72916">
<rect width="32" height="32" fill="white"/>
</clipPath>
</defs>
</svg>
